<svg display="none" xmlns="http://www.w3.org/2000/svg">

  <!-- Logo svg-->
  <symbol id="logo-svg" version="1.0" xmlns="http://www.w3.org/2000/svg" viewBox="0 0 482 476">
    <path
      d="M0 238v238h482v-95c0-52.3-.3-95-.7-95-.5 0-2.4 2.8-4.3 6.2-2.2 3.9-8.3 11.1-16.3 19.3l-12.7 13v55.7c0 30.7.3 57.1.6 58.8l.7 3H33.5l.3-205L34 32l207.3-.2 207.2-.3-.3 43.2-.3 43.1 3.6 2.9c4.5 3.5 22.6 24.8 26.7 31.4 1.6 2.7 3.2 4.9 3.4 4.9.2 0 .4-35.3.4-78.5V0H0v238z" />
    <path
      d="m239.8 54.8-9.8.3v7.7c0 4.2-.3 8.8-.7 10.2-.5 1.9.5 1.1 4.3-3.1 2.7-3.1 7.4-7.6 10.4-9.9 3-2.4 5.7-4.5 5.9-4.7.9-.7-.8-.8-10.1-.5zM70.5 55.7c.6.5 3.5 2.9 6.5 5.3s7.6 6.4 10.3 8.9l4.7 4.5V56h-9.4c-5.2 0-10.3-.3-11.3-.6-1.2-.5-1.4-.4-.8.3zM131.8 55.8l-15.8.3v18.4c0 18.1 0 18.5 2.3 19.6 3 1.7 14.5 12.8 22.8 22.1l6.8 7.7.3-31.7c.2-17.4.1-32.8-.2-34.2l-.5-2.5-15.7.3zM172.1 90.7c.2 19.4.7 35.3 1.2 35.3.4 0 .7-.4.7-1 0-.5 1.9-2.8 4.3-5.2 2.3-2.4 7.1-7.5 10.7-11.4 3.6-3.8 8.2-8.3 10.3-10l3.9-3 .5-19.9.6-20h-32.5l.3 35.2zM286 90.5v34.7l4.8-3.9c14.2-11.6 29.5-20.1 45.5-25.2 13.1-4.2 29.6-5.6 46.4-4.1 15.4 1.4 21.1 2.9 32.4 8.5 5 2.5 9.2 4.5 9.5 4.5.2 0 .3-10.8.2-24.1l-.3-24-26 .3c-34.7.4-87.3 0-101.2-.7l-11.3-.6v34.6z" />
    <path
      d="m57.3 238.5.2 179.5h34.1l-.1-136.4c0-75 .3-136.7.6-137.1.4-.3 3.7 2.7 7.5 6.7s14.8 14.9 24.4 24.2c23.8 23.2 32 31.4 35.5 35.9l3 3.7 6.4-7.2c5.8-6.6 43.7-45.4 53.6-54.9 2.2-2.2 4.5-3.9 5-3.9.7 0 1 48.2.9 134.3-.1 73.8 0 134.4.1 134.7.2.3 7.7.4 16.7.2l16.3-.3.1-65.2c0-54.2.3-67.7 1.7-79.7 1.5-12.8 1.5-19.5.7-56-.5-22.8-1.4-46.1-1.9-51.8-.6-5.9-.8-30.5-.5-57.9.3-26.2.2-47.4-.2-47-.4.3-2.1 2.6-3.8 5.1-3.6 5.1-16.9 19.6-47.5 51.6-11.9 12.4-27.4 29-34.6 36.8l-13 14.2-14.5-14.8c-7.9-8.1-25-25.5-38-38.7C97 101.3 83.5 87.1 80 83c-6.5-7.7-21.7-24-22.4-24-.3 0-.4 80.8-.3 179.5zM351.8 118c-23.4 4.9-37.2 12.2-52.3 27.4-9.1 9.2-16.7 21.8-21.9 36.4-2.9 8-3.1 9.8-3.3 23.2-.1 8-.5 22.1-.9 31.5-.7 16.6-.6 17.2 1.9 24.4 2.8 8.1 12.5 24.7 19.4 33.6 10.2 13 33.1 27 51.8 31.6 12 3 34.1 3.2 46 .5 15.1-3.5 32.8-12.4 43-21.8 8.6-7.8 26.5-30.9 26.5-34 0-.6 1.8-5 3.9-9.7 6.4-14 6.6-13.1-2.6-13.1-4.3 0-12.7-.9-18.8-2-6-1.1-11-1.8-11.2-1.6-.2.2-1 3-1.9 6.2-2.2 8.6-9.7 20.6-17.6 27.9-11.9 11-27.1 16.9-43.8 16.9-11.3 0-19-1.9-30.5-7.7-14-7.1-26.8-22.3-31.5-37.5-4-12.9-5.1-29.1-3-44.4 1.2-8.4 6-22 8.8-25.2 1.1-1.1 2.7-3.5 3.5-5.1 1.9-3.6 10.2-10.5 18.9-15.8 9.9-6 17.3-7.9 32.4-8.5 16-.5 21.7.6 33.3 6.4 14.1 7 26.3 21.3 30 35.2.7 2.3 1.5 4.2 2 4.2.4 0 7.5-1.4 15.6-3 8.1-1.7 16.4-3 18.2-3h3.5l-6-11.4C447.6 146 431.6 131 403 120.9c-14.7-5.3-34.8-6.4-51.2-2.9z" />
    <path
      d="M115 306.2v112.3l16.5-.3 16.5-.3v-92.3c0-50.8.3-93.6.6-95.2.5-2.7-.8-4.3-16.1-19.7-9.2-9.2-16.9-16.7-17.1-16.7-.2 0-.4 50.5-.4 112.2zM200.6 201.7c-1.9 2.7-9.1 10.4-16 17.3L172 231.5V418h32.5V307.5c0-60.8-.1-110.5-.2-110.5s-1.7 2.1-3.7 4.7zM285.3 336.2c.4 10.1 1 21.1 1.3 24.4l.5 6.1 14.2.7c31.1 1.3 74.5 1.8 97.9 1.1l24.7-.7.3-14.2c.2-7.7.2-14.3.1-14.5-.2-.2-3.3 1-7 2.7-38.1 17.3-85.7 11.1-121.7-16-5.8-4.3-10.6-7.8-10.8-7.8-.2 0 0 8.2.5 18.2zM341.3 388.7l-55.3.3v5.3c0 2.8-.3 9.7-.7 15.1-.4 6.8-.3 9.7.4 9.3.6-.4 32.2-.8 70.3-.8l69.2-.2-.5-14.6-.6-14.6h-13.8c-7.6 0-38.7.1-69 .2z" />
  </symbol>

  <!-- Arrow svg-->
  <symbol id="arrow-svg" viewBox="0 0 10 17" xmlns="http://www.w3.org/2000/svg">
    <path
      d="M1.25111 16.0843c-.320261 0-.640343-.1222-.88465-.3663-.488613-.4886-.488613-1.2807 0-1.7693l5.90679-5.90664L.36646 2.13545c-.488613-.48844-.488613-1.28069 0-1.769124.488434-.488435 1.28069-.488435 1.76912 0L8.92684 7.15759c.48844.48843.48844 1.28068 0 1.7693L2.13558 15.7181c-.24412.244-.56421.3662-.88447.3662Z" />
  </symbol>

</svg>
